# xmcd CD database file
#
# Track frame offsets:
#	150
#	21510
#	35680
#	50350
#	66747
#	85995
#	98482
#
# Disc length: 1608 seconds
#
# Revision: 0
# Processed by: cddbd v1.4PL0 Copyright (c) Steve Scherf et al.
# Submitted via: CDex 1.51
#
DISCID=5d064607
DTITLE=Various Artist - T'Wang This!
DYEAR=1999
DGENRE=Country
TTITLE0=Brad Paisley - He Didn't Have To Be
TTITLE1=Sarah Evens - Fool I'm A Woman
TTITLE2=Andy Griggs - I'll Go Crazy
TTITLE3=Sherrie Austin - Never Been Kissed
TTITLE4=Jason Sellers - A Matter Of Time
TTITLE5=Cindy McCready - All I Want Is Everything
TTITLE6=Radney Foster - Godspeed
EXTD=YEAR: 1999
EXTT0=
EXTT1=
EXTT2=
EXTT3=
EXTT4=
EXTT5=
EXTT6=
PLAYORDER=
